<?xml version="1.0" encoding="UTF-8"?>
<svg id="_图层_1" data-name="图层 1" xmlns="http://www.w3.org/2000/svg" viewBox="0 0 1000 1000">
  <defs>
    <style>
      .cls-1 {
        fill: #fefefe;
      }
    </style>
  </defs>
  <path class="cls-1" d="M602,41.5c1.99-11.9,16.06-21.45,27.52-22.48,27.37-2.48,58.23,1.81,85.97,0,14.11,2.23,25.23,10.85,27.51,25.49l.5,70.5c9.95,6.3,19.87,12.67,29.39,19.61,181.88,132.62,240.13,378.44,132.63,578.41-131.16,243.99-450.32,317.01-675.84,153.8C23.14,717.34-20.93,425.86,136.6,223.1,245.06,83.51,428.33,17.14,602,57c.55-4.76-.76-10.96,0-15.5ZM462.35,360.35c-4.51,4.6-20.25,19.82-22.4,24.11-2.64,5.27-2.61,10.49.59,15.5,68,66.23,133.12,134.98,199.48,202.52,6.1,6.21,23.53,28.02,31.55,28.52,1.22.08,8.76-2.74,9.46-3.46,1.6-1.63.33-4.96,2.4-6.6l222-222.99c1.79-6.79,1.44-11.45-2.93-16.96-8.37-10.56-33.42-35.44-43.99-44.01-6.59-5.35-13.3-7.86-20.05-1l-88.97,89.03c-11.71,5.68-16.59-1.28-17.54-12.47l.03-364.03c-1.06-10.71-6.49-17.26-17.49-18.51-25.99-2.97-57.41,2.21-83.99.02-10.15,1.22-17.95,7.58-17.56,18.44l.08,364.08c-.96,11.21-5.85,18.14-17.54,12.47l-87.97-88.03c-5.42-5.24-11.88-6.73-18.47-2.43-5.42,3.54-21.14,20.14-26.7,25.8ZM602,66c-135.62-29.48-277.95,1.84-385.48,89.02C1.27,329.57-4.67,651.96,203.99,834.51c199.42,174.47,510.95,137,663.83-78.2,141.96-199.83,94.77-475.25-103.92-616.71-6.35-4.52-13.53-10.71-20.89-12.61v287c1.77-.58,3.13-1.79,4.53-2.97,28.48-24.01,53.88-59.01,82.46-82.54,10.43-8.59,19.26-10.06,31.54-3.52,14.3,17.45,37.59,33.59,51,51,7.16,9.3,8.22,20.4,1,30.05l-223,224c-5.43,4.62-12.18,8.14-19.52,7.98-.2,13.16,2.57,28.53,1.04,41.54-.17,1.46-.12,2.57-1.55,3.45h-131.5c4.48,58.24,75.3,51.06,113.26,30.95,1.18-.62.19-2.3,1.74-1.95v44c-17.14,9.06-35.31,12.93-54.51,14.99l-138.35-.15c-.48-2.65-1.97-4.9-3.36-7.13-25.95-41.86-50-85.06-76.37-126.63-11.13-17.54-37.48-59.08-60.92-59.08h-41.5v193h-108v-499.5l3.45-1.55c64.14,2.3,130.18-2.88,194.09,0,44.11,1.99,89.08,12.73,122.93,42.07,2.52,2.19,5.43,6.88,6.98,8.02,4.13,3.06,10.88,3.97,17.02,8.98,28.92,23.63,54.87,58.7,83.52,83.48l3.01,1.49V66ZM187,285v471h77v-181.5c0-5.84,8.63-11.14,13.95-12.05,14.73-2.52,44.36-.93,58.28,4.82,24.05,9.93,38.38,32.05,52.19,52.81l81.58,135.92h86c.39-4.16-2.58-7.51-4.58-10.92-21.29-36.22-46.64-74.92-70-110-15.4-23.13-38.03-55.72-62.11-69.89-9.07-5.34-21.51-7.2-20.09-21.4,1.19-11.86,8.86-11.48,17.32-14.76,26.28-10.19,47.05-20.32,65.98-42.02,3.33-3.82,13.39-14.77,10.54-19.56-18.76-20.69-42.42-39.49-60.58-60.42-1.32-1.52-2.33-2.95-2.49-5.02-3.62-3.62-.97,9.7-.94,10.46,1.67,59.5-39.1,95.56-96.5,98.58-13.94.73-39.51,1.49-52.78-.3-7.82-1.05-13.51-4.57-15.53-12.47l-.27-146.81c.6-6.78,3.12-10.99,9.5-13.5,9.34-3.68,48.93-2.54,61.09-2,32.04,1.44,68.34,9.79,84.63,40.37,2.54,4.76,3.91,9.86,6.33,14.65l6.5-14.48,50.03-51c0-3.23-15.66-13.85-19.12-15.92-31.95-19.18-68.84-22.57-105.38-24.62l-170.54.04ZM279,495h63.5c16.8,0,41.45-13.03,52.53-25.47,23.9-26.86,27.03-80.81-4.11-102.94-31.09-22.09-76.05-12.39-111.91-14.59v143ZM584,560l-77.5-78.04c-1.99-.01-13.77,16.65-16.47,19.57-20.04,21.62-48.21,35.35-76.02,43.97,20.54,9.09,36.54,23.91,50.97,41.03,8.38,9.94,16.67,21.15,23.04,32.47l2.05-.61c10.93-25.94,34.43-47.55,61.72-55.1,2.91-.81,12.4-3.29,14.71-3.29h17.5ZM538.5,673h123.5c-1.15-8.37,2.2-32.14-1.92-38.58-.91-1.42-4.06-2.91-5.6-4.4-19.88-19.11-38.79-39.26-57.93-59.07-35.86-7.96-71.41,7.45-91.36,37.74-3.44,5.22-10.62,17.14-8.43,23.02l31.21,48.82,3.01.48c-.48-4.29,3.77-7.39,7.51-8ZM645,729c-9.1.91-17.68,5.02-26.79,6.71-19.86,3.67-38.05,2.51-57.2-3.7l18.67,30.03c22.04-.27,45.85-1.54,65.33-12.54v-20.5Z"/>
  <path class="cls-1" d="M622.72,651.72c-1.47,1.48-5.06,2.14-7.17,2.33-24.72,2.24-52.9-1.74-77.99-.11-13.42-2.12-4.68-25.37-1.04-32.93,21.25-44.16,83.88-39.2,88.47,13.5.36,4.17.68,14.26-2.27,17.2ZM616,645c.21-21.65-6.8-42.32-31.46-44.04-21.27-1.49-35.63,11.61-42.3,30.78-1.5,4.32-2.24,8.83-3.24,13.26h77Z"/>
</svg>